<?xml version="1.0" standalone="no"?>
<!DOCTYPE svg PUBLIC "-//W3C//DTD SVG 20010904//EN"
 "http://www.w3.org/TR/2001/REC-SVG-20010904/DTD/svg10.dtd">
<svg version="1.0" xmlns="http://www.w3.org/2000/svg"
 width="540.000000pt" height="540.000000pt" viewBox="0 0 540.000000 540.000000"
 preserveAspectRatio="xMidYMid meet">

<g transform="translate(0.000000,540.000000) scale(0.100000,-0.100000)"
fill="#000000" stroke="none">
<path d="M160 4660 l0 -530 530 0 530 0 0 530 0 530 -530 0 -530 0 0 -530z
m900 0 l0 -370 -370 0 -370 0 0 370 0 370 370 0 370 0 0 -370z"/>
<path d="M460 4660 l0 -230 230 0 230 0 0 230 0 230 -230 0 -230 0 0 -230z"/>
<path d="M1360 4960 l0 -230 150 0 150 0 0 80 0 80 -70 0 -70 0 0 70 0 70 70
0 70 0 0 80 0 80 -150 0 -150 0 0 -230z"/>
<path d="M1820 5110 l0 -80 70 0 70 0 0 -70 0 -70 -70 0 -70 0 0 -230 0 -230
70 0 70 0 0 -220 0 -220 -70 0 -70 0 0 -80 0 -80 -80 0 -80 0 0 80 0 80 -520
0 -520 0 0 -80 0 -80 -80 0 -80 0 0 -70 0 -70 -70 0 -70 0 0 -80 0 -80 70 0
70 0 0 80 0 80 80 0 80 0 0 -80 0 -80 70 0 70 0 0 -70 0 -70 -300 0 -300 0 0
-150 0 -150 80 0 80 0 0 -80 0 -80 -80 0 -80 0 0 -70 0 -70 80 0 80 0 0 70 0
70 70 0 70 0 0 -70 0 -70 80 0 80 0 0 150 0 150 70 0 70 0 0 70 0 70 80 0 80
0 0 -150 0 -150 -80 0 -80 0 0 -150 0 -150 -70 0 -70 0 0 -70 0 -70 -80 0 -80
0 0 70 0 70 -70 0 -70 0 0 -150 0 -150 150 0 150 0 0 80 0 80 70 0 70 0 0 -80
0 -80 80 0 80 0 0 -70 0 -70 70 0 70 0 0 -80 0 -80 -70 0 -70 0 0 -70 0 -70
70 0 70 0 0 -80 0 -80 -220 0 -220 0 0 80 0 80 -80 0 -80 0 0 -80 0 -80 80 0
80 0 0 -150 0 -150 70 0 70 0 0 80 0 80 150 0 150 0 0 -80 0 -80 80 0 80 0 0
80 0 80 70 0 70 0 0 -450 0 -450 80 0 80 0 0 70 0 70 70 0 70 0 0 80 0 80 -70
0 -70 0 0 150 0 150 70 0 70 0 0 -80 0 -80 80 0 80 0 0 -70 0 -70 70 0 70 0 0
-80 0 -80 80 0 80 0 0 80 0 80 150 0 150 0 0 -80 0 -80 -80 0 -80 0 0 -150 0
-150 -70 0 -70 0 0 -70 0 -70 70 0 70 0 0 70 0 70 150 0 150 0 0 80 0 80 80 0
80 0 0 70 0 70 70 0 70 0 0 -70 0 -70 80 0 80 0 0 70 0 70 70 0 70 0 0 -220 0
-220 -70 0 -70 0 0 -80 0 -80 70 0 70 0 0 80 0 80 80 0 80 0 0 150 0 150 70 0
70 0 0 -150 0 -150 80 0 80 0 0 -80 0 -80 520 0 520 0 0 80 0 80 230 0 230 0
0 370 0 370 -80 0 -80 0 0 -220 0 -220 -70 0 -70 0 0 -80 0 -80 -150 0 -150 0
0 80 0 80 -80 0 -80 0 0 70 0 70 80 0 80 0 0 80 0 80 150 0 150 0 0 150 0 150
70 0 70 0 0 70 0 70 -150 0 -150 0 0 -150 0 -150 -70 0 -70 0 0 230 0 230 220
0 220 0 0 70 0 70 80 0 80 0 0 80 0 80 -150 0 -150 0 0 70 0 70 150 0 150 0 0
300 0 300 -80 0 -80 0 0 -150 0 -150 -70 0 -70 0 0 150 0 150 -80 0 -80 0 0
80 0 80 80 0 80 0 0 70 0 70 -230 0 -230 0 0 -70 0 -70 -150 0 -150 0 0 70 0
70 80 0 80 0 0 80 0 80 70 0 70 0 0 220 0 220 150 0 150 0 0 -70 0 -70 230 0
230 0 0 150 0 150 -150 0 -150 0 0 70 0 70 150 0 150 0 0 80 0 80 -230 0 -230
0 0 -80 0 -80 -70 0 -70 0 0 80 0 80 -80 0 -80 0 0 -230 0 -230 -70 0 -70 0 0
-70 0 -70 -80 0 -80 0 0 -80 0 -80 -70 0 -70 0 0 80 0 80 -80 0 -80 0 0 70 0
70 80 0 80 0 0 80 0 80 -80 0 -80 0 0 70 0 70 150 0 150 0 0 80 0 80 -220 0
-220 0 0 -80 0 -80 -80 0 -80 0 0 -70 0 -70 -150 0 -150 0 0 70 0 70 -70 0
-70 0 0 -70 0 -70 70 0 70 0 0 -80 0 -80 -150 0 -150 0 0 -70 0 -70 -70 0 -70
0 0 150 0 150 70 0 70 0 0 150 0 150 80 0 80 0 0 150 0 150 70 0 70 0 0 -80 0
-80 80 0 80 0 0 80 0 80 70 0 70 0 0 -80 0 -80 80 0 80 0 0 80 0 80 70 0 70 0
0 -80 0 -80 80 0 80 0 0 230 0 230 -80 0 -80 0 0 70 0 70 80 0 80 0 0 80 0 80
-80 0 -80 0 0 -80 0 -80 -150 0 -150 0 0 80 0 80 80 0 80 0 0 150 0 150 -80 0
-80 0 0 -150 0 -150 -70 0 -70 0 0 150 0 150 -80 0 -80 0 0 -80 0 -80 -70 0
-70 0 0 80 0 80 -230 0 -230 0 0 -300 0 -300 -70 0 -70 0 0 300 0 300 -150 0
-150 0 0 -80 0 -80 -80 0 -80 0 0 80 0 80 -70 0 -70 0 0 -80z m1040 -150 l0
-70 150 0 150 0 0 -80 0 -80 -150 0 -150 0 0 -70 0 -70 450 0 450 0 0 -80 0
-80 -70 0 -70 0 0 -70 0 -70 -80 0 -80 0 0 70 0 70 -70 0 -70 0 0 -70 0 -70
-80 0 -80 0 0 70 0 70 -70 0 -70 0 0 -70 0 -70 -80 0 -80 0 0 -150 0 -150 -70
0 -70 0 0 520 0 520 70 0 70 0 0 -70z m-740 -150 l0 -80 70 0 70 0 0 -70 0
-70 80 0 80 0 0 -80 0 -80 -80 0 -80 0 0 80 0 80 -150 0 -150 0 0 150 0 150
80 0 80 0 0 -80z m140 -600 l0 -80 80 0 80 0 0 80 0 80 70 0 70 0 0 -80 0 -80
-70 0 -70 0 0 -70 0 -70 70 0 70 0 0 -80 0 -80 80 0 80 0 0 -70 0 -70 -80 0
-80 0 0 70 0 70 -70 0 -70 0 0 -150 0 -150 70 0 70 0 0 -70 0 -70 80 0 80 0 0
-80 0 -80 70 0 70 0 0 80 0 80 80 0 80 0 0 -80 0 -80 -80 0 -80 0 0 -70 0 -70
80 0 80 0 0 -80 0 -80 70 0 70 0 0 80 0 80 80 0 80 0 0 220 0 220 70 0 70 0 0
80 0 80 80 0 80 0 0 -80 0 -80 -80 0 -80 0 0 -220 0 -220 150 0 150 0 0 70 0
70 80 0 80 0 0 -70 0 -70 70 0 70 0 0 70 0 70 80 0 80 0 0 -70 0 -70 -80 0
-80 0 0 -80 0 -80 -70 0 -70 0 0 -70 0 -70 -150 0 -150 0 0 -80 0 -80 150 0
150 0 0 -150 0 -150 70 0 70 0 0 -70 0 -70 80 0 80 0 0 70 0 70 70 0 70 0 0
80 0 80 -70 0 -70 0 0 70 0 70 70 0 70 0 0 -70 0 -70 80 0 80 0 0 70 0 70 70
0 70 0 0 -70 0 -70 -70 0 -70 0 0 -80 0 -80 -80 0 -80 0 0 -70 0 -70 -70 0
-70 0 0 -150 0 -150 -230 0 -230 0 0 70 0 70 -70 0 -70 0 0 -70 0 -70 -80 0
-80 0 0 -150 0 -150 80 0 80 0 0 70 0 70 370 0 370 0 0 80 0 80 150 0 150 0 0
-80 0 -80 -70 0 -70 0 0 -70 0 -70 -380 0 -380 0 0 -150 0 -150 -70 0 -70 0 0
-230 0 -230 -230 0 -230 0 0 80 0 80 -70 0 -70 0 0 -80 0 -80 -80 0 -80 0 0
80 0 80 80 0 80 0 0 70 0 70 -80 0 -80 0 0 80 0 80 80 0 80 0 0 70 0 70 70 0
70 0 0 80 0 80 -70 0 -70 0 0 70 0 70 -150 0 -150 0 0 -70 0 -70 70 0 70 0 0
-80 0 -80 -70 0 -70 0 0 80 0 80 -80 0 -80 0 0 -80 0 -80 -150 0 -150 0 0 150
0 150 -70 0 -70 0 0 80 0 80 -80 0 -80 0 0 70 0 70 -70 0 -70 0 0 -150 0 -150
70 0 70 0 0 -150 0 -150 80 0 80 0 0 -70 0 -70 150 0 150 0 0 -80 0 -80 70 0
70 0 0 80 0 80 80 0 80 0 0 -150 0 -150 -150 0 -150 0 0 70 0 70 -300 0 -300
0 0 80 0 80 70 0 70 0 0 70 0 70 -70 0 -70 0 0 150 0 150 -80 0 -80 0 0 -150
0 -150 -70 0 -70 0 0 230 0 230 -80 0 -80 0 0 70 0 70 80 0 80 0 0 80 0 80
-230 0 -230 0 0 70 0 70 80 0 80 0 0 80 0 80 -150 0 -150 0 0 70 0 70 300 0
300 0 0 80 0 80 -80 0 -80 0 0 70 0 70 -70 0 -70 0 0 -70 0 -70 -80 0 -80 0 0
70 0 70 80 0 80 0 0 80 0 80 -80 0 -80 0 0 70 0 70 -70 0 -70 0 0 80 0 80 70
0 70 0 0 70 0 70 80 0 80 0 0 80 0 80 -150 0 -150 0 0 70 0 70 300 0 300 0 0
-70 0 -70 70 0 70 0 0 -80 0 -80 80 0 80 0 0 80 0 80 70 0 70 0 0 150 0 150
150 0 150 0 0 70 0 70 -70 0 -70 0 0 80 0 80 70 0 70 0 0 -80z m-1500 -450 l0
-70 -70 0 -70 0 0 70 0 70 70 0 70 0 0 -70z m4060 -1650 l0 -80 -80 0 -80 0 0
80 0 80 80 0 80 0 0 -80z m-3600 -150 l0 -70 -80 0 -80 0 0 70 0 70 80 0 80 0
0 -70z m0 -300 l0 -70 -80 0 -80 0 0 70 0 70 80 0 80 0 0 -70z m3140 -450 l0
-220 -220 0 -220 0 0 220 0 220 220 0 220 0 0 -220z m-1800 -450 l0 -70 -70 0
-70 0 0 70 0 70 70 0 70 0 0 -70z m1360 0 l0 -70 70 0 70 0 0 70 0 70 80 0 80
0 0 -220 0 -220 -300 0 -300 0 0 70 0 70 150 0 150 0 0 80 0 80 -80 0 -80 0 0
70 0 70 80 0 80 0 0 -70z"/>
<path d="M2260 3910 l0 -80 -70 0 -70 0 0 -70 0 -70 -80 0 -80 0 0 -150 0
-150 80 0 80 0 0 -80 0 -80 -80 0 -80 0 0 -70 0 -70 -70 0 -70 0 0 70 0 70
-80 0 -80 0 0 150 0 150 -150 0 -150 0 0 -220 0 -220 80 0 80 0 0 -80 0 -80
70 0 70 0 0 -70 0 -70 80 0 80 0 0 -80 0 -80 -150 0 -150 0 0 -220 0 -220 70
0 70 0 0 150 0 150 80 0 80 0 0 -150 0 -150 70 0 70 0 0 300 0 300 -70 0 -70
0 0 70 0 70 150 0 150 0 0 -70 0 -70 70 0 70 0 0 -80 0 -80 80 0 80 0 0 -70 0
-70 -80 0 -80 0 0 -80 0 -80 80 0 80 0 0 -70 0 -70 -150 0 -150 0 0 -150 0
-150 70 0 70 0 0 70 0 70 80 0 80 0 0 80 0 80 70 0 70 0 0 -80 0 -80 80 0 80
0 0 -70 0 -70 70 0 70 0 0 70 0 70 150 0 150 0 0 80 0 80 150 0 150 0 0 -80 0
-80 -70 0 -70 0 0 -70 0 -70 70 0 70 0 0 70 0 70 80 0 80 0 0 150 0 150 70 0
70 0 0 -150 0 -150 80 0 80 0 0 150 0 150 -80 0 -80 0 0 80 0 80 -70 0 -70 0
0 70 0 70 -80 0 -80 0 0 -70 0 -70 -70 0 -70 0 0 70 0 70 -300 0 -300 0 0 150
0 150 70 0 70 0 0 -70 0 -70 80 0 80 0 0 70 0 70 -80 0 -80 0 0 80 0 80 -70 0
-70 0 0 -80 0 -80 -80 0 -80 0 0 80 0 80 -70 0 -70 0 0 70 0 70 -80 0 -80 0 0
300 0 300 80 0 80 0 0 80 0 80 -80 0 -80 0 0 -80z m-600 -750 l0 -70 -70 0
-70 0 0 70 0 70 70 0 70 0 0 -70z m600 -150 l0 -80 -70 0 -70 0 0 80 0 80 70
0 70 0 0 -80z m300 -150 l0 -70 -70 0 -70 0 0 70 0 70 70 0 70 0 0 -70z m160
-380 l0 -150 220 0 220 0 0 80 0 80 80 0 80 0 0 -80 0 -80 -80 0 -80 0 0 -70
0 -70 -150 0 -150 0 0 -80 0 -80 -70 0 -70 0 0 80 0 80 -80 0 -80 0 0 220 0
220 80 0 80 0 0 -150z m900 -70 l0 -80 -80 0 -80 0 0 80 0 80 80 0 80 0 0 -80z"/>
<path d="M1060 3310 l0 -80 80 0 80 0 0 80 0 80 -80 0 -80 0 0 -80z"/>
<path d="M3020 1810 l0 -80 70 0 70 0 0 80 0 80 -70 0 -70 0 0 -80z"/>
<path d="M2420 1660 l0 -70 70 0 70 0 0 70 0 70 -70 0 -70 0 0 -70z"/>
<path d="M3320 1360 l0 -70 -150 0 -150 0 0 -80 0 -80 70 0 70 0 0 -70 0 -70
150 0 150 0 0 220 0 220 -70 0 -70 0 0 -70z"/>
<path d="M4060 1210 l0 -80 80 0 80 0 0 80 0 80 -80 0 -80 0 0 -80z"/>
<path d="M4060 4660 l0 -530 530 0 530 0 0 530 0 530 -530 0 -530 0 0 -530z
m900 0 l0 -370 -370 0 -370 0 0 370 0 370 370 0 370 0 0 -370z"/>
<path d="M4360 4660 l0 -230 230 0 230 0 0 230 0 230 -230 0 -230 0 0 -230z"/>
<path d="M1360 4510 l0 -80 80 0 80 0 0 -70 0 -70 -80 0 -80 0 0 -80 0 -80 80
0 80 0 0 80 0 80 70 0 70 0 0 -80 0 -80 80 0 80 0 0 80 0 80 -80 0 -80 0 0
150 0 150 -150 0 -150 0 0 -80z"/>
<path d="M160 3910 l0 -80 80 0 80 0 0 80 0 80 -80 0 -80 0 0 -80z"/>
<path d="M4520 3160 l0 -70 70 0 70 0 0 70 0 70 -70 0 -70 0 0 -70z"/>
<path d="M4960 2860 l0 -70 80 0 80 0 0 70 0 70 -80 0 -80 0 0 -70z"/>
<path d="M160 1810 l0 -380 150 0 150 0 0 80 0 80 -70 0 -70 0 0 220 0 220
220 0 220 0 0 80 0 80 -300 0 -300 0 0 -380z"/>
<path d="M160 760 l0 -530 530 0 530 0 0 530 0 530 -530 0 -530 0 0 -530z
m900 0 l0 -370 -370 0 -370 0 0 370 0 370 370 0 370 0 0 -370z"/>
<path d="M460 760 l0 -230 230 0 230 0 0 230 0 230 -230 0 -230 0 0 -230z"/>
<path d="M1660 610 l0 -80 -70 0 -70 0 0 -70 0 -70 -80 0 -80 0 0 -80 0 -80
150 0 150 0 0 80 0 80 150 0 150 0 0 70 0 70 -70 0 -70 0 0 80 0 80 -80 0 -80
0 0 -80z"/>
<path d="M2420 310 l0 -80 220 0 220 0 0 80 0 80 -220 0 -220 0 0 -80z"/>
</g>
</svg>
